<svg width="80" height="80" viewBox="0 0 25 25" fill="none" xmlns="http://www.w3.org/2000/svg" transform="rotate(0 0 0)">
<path fill-rule="evenodd" clip-rule="evenodd" d="M7.31445 5.22949V4.47852C7.31445 3.23588 8.32181 2.22852 9.56445 2.22852H18.0644C19.3071 2.22852 20.3144 3.23587 20.3144 4.47851L20.3144 16.9805C20.3144 18.2231 19.3071 19.2305 18.0644 19.2305H16.5625L16.5625 19.9785C16.5625 21.2212 15.5551 22.2285 14.3125 22.2285H6.5625C5.31986 22.2285 4.3125 21.2212 4.3125 19.9785V7.47949C4.3125 6.23685 5.31986 5.22949 6.5625 5.22949H7.31445ZM8.81445 4.47852C8.81445 4.0643 9.15024 3.72852 9.56445 3.72852H18.0644C18.4786 3.72852 18.8144 4.0643 18.8144 4.47852L18.8144 16.9805C18.8144 17.3947 18.4786 17.7305 18.0644 17.7305H16.5625V17.7278H15.0625V17.7305H9.56445C9.15024 17.7305 8.81445 17.3947 8.81445 16.9805V4.47852ZM7.31445 6.72949H6.5625C6.14829 6.72949 5.8125 7.06528 5.8125 7.47949V19.9785C5.8125 20.3927 6.14829 20.7285 6.5625 20.7285H14.3125C14.7267 20.7285 15.0625 20.3927 15.0625 19.9785L15.0625 19.2305H9.56445C8.32181 19.2305 7.31445 18.2231 7.31445 16.9805V6.72949Z" fill="#ffffff"></path>
</svg>
