<svg width="80" height="80" viewBox="0 0 24 24" fill="#ffffff" xmlns="http://www.w3.org/2000/svg" transform="rotate(0 0 0)">
<path d="M12.0006 4.5C11.2951 4.5 10.7329 5.09006 10.7671 5.79476L11.2515 15.7858C11.2709 16.1855 11.6005 16.4995 12.0006 16.4995C12.4007 16.4995 12.7304 16.1855 12.7497 15.7858L13.2341 5.79476C13.2683 5.09006 12.7061 4.5 12.0006 4.5Z" fill="#ffffff"></path>
<path d="M11.9994 17.85C11.5023 17.85 11.0994 18.2529 11.0994 18.75C11.0994 19.2471 11.5023 19.65 11.9994 19.65H12.0004C12.4974 19.65 12.9004 19.2471 12.9004 18.75C12.9004 18.2529 12.4974 17.85 12.0004 17.85H11.9994Z" fill="#ffffff"></path>
</svg>
