<svg width="80" height="80" viewBox="0 0 24 24" fill="#ffffff" xmlns="http://www.w3.org/2000/svg" transform="rotate(0 0 0)">
<path d="M16.6272 4.49741C17.0414 4.49741 17.3772 4.8332 17.3772 5.24741V6.9957C17.3772 7.40992 17.0414 7.7457 16.6272 7.7457C16.213 7.7457 15.8772 7.40992 15.8772 6.9957V5.24741C15.8772 4.8332 16.213 4.49741 16.6272 4.49741Z" fill="#ffffff"></path>
<path d="M15.8262 9.49781C15.8262 9.05598 16.1844 8.69781 16.6262 8.69781C17.068 8.69781 17.4272 9.05598 17.4272 9.49781C17.4272 9.93964 17.069 10.2978 16.6272 10.2978C16.1854 10.2978 15.8262 9.93964 15.8262 9.49781Z" fill="#ffffff"></path>
<path fill-rule="evenodd" clip-rule="evenodd" d="M11.2517 7.375C11.2517 4.40647 13.6582 2 16.6267 2C19.5952 2 22.0017 4.40647 22.0017 7.375C22.0017 10.3435 19.5952 12.75 16.6267 12.75C13.6582 12.75 11.2517 10.3435 11.2517 7.375ZM16.6267 3.5C14.4866 3.5 12.7517 5.2349 12.7517 7.375C12.7517 9.5151 14.4866 11.25 16.6267 11.25C18.7668 11.25 20.5017 9.5151 20.5017 7.375C20.5017 5.2349 18.7668 3.5 16.6267 3.5Z" fill="#ffffff"></path>
<path fill-rule="evenodd" clip-rule="evenodd" d="M10.8913 3.58234C7.27568 4.11887 4.5016 7.23584 4.5016 11.0007V14.1147L3.80936 15.9607C3.25776 17.4316 4.34514 19.0007 5.9161 19.0007H8.93682C8.97089 20.6629 10.3295 21.9993 11.9998 21.9993C13.6701 21.9993 15.0287 20.6629 15.0628 19.0007H18.0871C19.6581 19.0007 20.7454 17.4316 20.1938 15.9607L19.5016 14.1147V13.6218C19.0282 13.84 18.5257 14.006 18.0016 14.1124V14.1166C18.0016 14.2952 18.0337 14.4724 18.0965 14.6397L18.7893 16.4874C18.9732 16.9777 18.6108 17.5007 18.0871 17.5007H5.9161C5.39244 17.5007 5.02998 16.9777 5.21385 16.4874L5.90673 14.6397C5.96946 14.4724 6.0016 14.2952 6.0016 14.1166V11.0007C6.0016 8.36516 7.70092 6.12648 10.0637 5.32059C10.2582 4.69854 10.5387 4.11448 10.8913 3.58234ZM11.9998 20.4993C11.1573 20.4993 10.471 19.8337 10.4375 19.0007H13.5622C13.5286 19.8337 12.8423 20.4993 11.9998 20.4993Z" fill="#ffffff"></path>
</svg>
